<svg width="180" height="62" viewBox="0 0 180 62" fill="none" xmlns="http://www.w3.org/2000/svg">
<path d="M30.3787 45.6123L17.6841 23.4382L30.3787 1" stroke="white" stroke-width="2"/>
<path d="M63.7473 0.999965L76.4419 23.1741L63.7473 45.6123" stroke="white" stroke-width="2"/>
<path d="M73.1777 60.1206H106.546" stroke="white" stroke-width="2"/>
<path d="M116.339 45.6123L103.645 23.4382L116.339 1" stroke="white" stroke-width="2"/>
<path d="M149.708 0.999965L162.402 23.1741L149.708 45.6123" stroke="white" stroke-width="2"/>
<path d="M81.1572 23.125H98.9296" stroke="white" stroke-width="2"/>
<path d="M1 17.5889L17.6984 23.2996" stroke="white" stroke-width="2"/>
<path d="M162.302 23.2998L179 17.5892" stroke="white" stroke-width="2"/>
<path d="M40.5347 32.9176V30.7414H45.6125V19.8603H40.5347V17.6841H53.7723V19.8603H48.6955V30.7414H53.7723V32.9176H40.5347Z" fill="white"/>
<path d="M131.392 32.9176V19.8603H126.315V17.6841H139.552V19.8603H134.293V32.9176H131.392Z" fill="white"/>
</svg>
