<svg width="1450" height="149" viewBox="0 0 1450 149" fill="none" xmlns="http://www.w3.org/2000/svg">
<path d="M42.5 148.75V127.5H21.25V106.25H0V42.5H21.25V21.25H42.5V0H127.5V21.25H148.75V42.5H106.25V21.25H63.75V42.5H42.5V106.25H63.75V127.5H106.25V106.25H148.75V127.5H127.5V148.75H42.5ZM191.25 148.75V127.5H170V106.25H212.5V127.5H276.25V85H191.25V63.75H170V0H212.5V63.75H276.25V0H318.75V127.5H297.5V148.75H191.25ZM340 148.75V0H488.75V148.75H446.25V21.25H382.5V148.75H340ZM510 148.75V0H658.75V21.25H552.5V63.75H637.5V85H552.5V127.5H658.75V148.75H510ZM680 148.75V0H807.5V21.25H828.75V85H807.5V106.25H722.5V148.75H680ZM722.5 85H786.25V21.25H722.5V85ZM981.75 148.75V0H1109.25V42.5H1088V21.25H1024.25V148.75H981.75ZM1130.5 148.75V0H1173V85H1194.25V63.75H1215.5V42.5H1236.75V0H1279.25V148.75H1236.75V85H1215.5V106.25H1194.25V127.5H1173V148.75H1130.5ZM1364.25 42.5H1385.5V63.75H1406.75V85H1428V127.5H1449.25V148.75H1406.75V127.5H1385.5V85H1343V148.75H1300.5V0H1343V63.75H1364.25V42.5ZM1449.25 0V21.25H1428V42.5H1385.5V21.25H1406.75V0H1449.25Z" fill="#EBEBEB"/>
</svg>
